2014001_C1_02_grf
version=1
nRows=37
nColumns=19
inDegrees=no
endheader
time	ground_force_1_vx	ground_force_1_vy	ground_force_1_vz	ground_force_1_px	ground_force_1_py	ground_force_1_pz	ground_force_1_mx	ground_force_1_my	ground_force_1_mz	ground_force_2_vx	ground_force_2_vy	ground_force_2_vz	ground_force_2_px	ground_force_2_py	ground_force_2_pz	ground_force_2_mx	ground_force_2_my	ground_force_2_mz
      1.06500000	    -17.93885008	    657.37235546	     18.11694503	      0.33399546	     -0.00200000	      0.21387655	      0.00000000	     -0.55168331	      0.00000000	      0.00000000	      0.00000000	      0.00000000	      0.00000000	      0.00000000	      0.00000000	      0.00000000	      0.00000000	      0.00000000
      1.06600000	    -17.96321720	    657.28817880	     18.14531945	      0.33399308	     -0.00200000	      0.21401917	      0.00000000	     -0.55756852	      0.00000000	      0.00000000	      0.00000000	      0.00000000	      0.00000000	      0.00000000	      0.00000000	      0.00000000	      0.00000000	      0.00000000
      1.06700000	    -17.98681617	    657.20548853	     18.17412740	      0.33398998	     -0.00200000	      0.21416117	      0.00000000	     -0.56349671	      0.00000000	      0.00000000	      0.00000000	      0.00000000	      0.00000000	      0.00000000	      0.00000000	      0.00000000	      0.00000000	      0.00000000
      1.06800000	    -18.00976694	    657.12399781	     18.20328999	      0.33398631	     -0.00200000	      0.21430266	     -0.00000000	     -0.56946000	      0.00000000	      0.00000000	      0.00000000	      0.00000000	      0.00000000	      0.00000000	      0.00000000	      0.00000000	      0.00000000	      0.00000000
      1.06900000	    -18.03185642	    657.04396740	     18.23289525	      0.33398194	     -0.00200000	      0.21444351	      0.00000000	     -0.57546822	      0.00000000	      0.00000000	      0.00000000	      0.00000000	      0.00000000	      0.00000000	      0.00000000	      0.00000000	      0.00000000	      0.00000000
      1.07000000	    -18.05321723	    656.96503222	     18.26285124	      0.33397700	     -0.00200000	      0.21458384	      0.00000000	     -0.58151237	      0.00000000	      0.00000000	      0.00000000	      0.00000000	      0.00000000	      0.00000000	      0.00000000	      0.00000000	      0.00000000	      0.00000000
      1.07100000	    -18.07361618	    656.88750520	     18.29323294	      0.33397137	     -0.00200000	      0.21472352	     -0.00000000	     -0.58760006	      0.00000000	      0.00000000	      0.00000000	      0.00000000	      0.00000000	      0.00000000	      0.00000000	      0.00000000	      0.00000000	      0.00000000
      1.07200000	    -18.09320748	    656.81096911	     18.32394451	      0.33396521	     -0.00200000	      0.21486268	      0.00000000	     -0.59372039	      0.00000000	      0.00000000	      0.00000000	      0.00000000	      0.00000000	      0.00000000	      0.00000000	      0.00000000	      0.00000000	      0.00000000
      1.07300000	    -18.11174303	    656.73565865	     18.35505245	      0.33395839	     -0.00200000	      0.21500120	      0.00000000	     -0.59987753	      0.00000000	      0.00000000	      0.00000000	      0.00000000	      0.00000000	      0.00000000	      0.00000000	      0.00000000	      0.00000000	      0.00000000
      1.07400000	    -18.12939644	    656.66128695	     18.38646680	      0.33395106	     -0.00200000	      0.21513922	     -0.00000000	     -0.60605903	      0.00000000	      0.00000000	      0.00000000	      0.00000000	      0.00000000	      0.00000000	      0.00000000	      0.00000000	      0.00000000	      0.00000000
      1.07500000	    -18.14590916	    656.58803657	     18.41825014	      0.33394311	     -0.00200000	      0.21527661	      0.00000000	     -0.61226449	      0.00000000	      0.00000000	      0.00000000	      0.00000000	      0.00000000	      0.00000000	      0.00000000	      0.00000000	      0.00000000	      0.00000000
      1.07600000	    -18.16148162	    656.51562065	     18.45032163	      0.33393468	     -0.00200000	      0.21541351	      0.00000000	     -0.61848453	      0.00000000	      0.00000000	      0.00000000	      0.00000000	      0.00000000	      0.00000000	      0.00000000	      0.00000000	      0.00000000	      0.00000000
      1.07700000	    -18.17585453	    656.44422174	     18.48273929	      0.33392567	     -0.00200000	      0.21554981	      0.00000000	     -0.62472146	      0.00000000	      0.00000000	      0.00000000	      0.00000000	      0.00000000	      0.00000000	      0.00000000	      0.00000000	      0.00000000	      0.00000000
      1.07800000	    -18.18925142	    656.37350082	     18.51542033	      0.33391621	     -0.00200000	      0.21568564	      0.00000000	     -0.63097364	      0.00000000	      0.00000000	      0.00000000	      0.00000000	      0.00000000	      0.00000000	      0.00000000	      0.00000000	      0.00000000	      0.00000000
      1.07900000	    -18.20141375	    656.30358830	     18.54841104	      0.33390620	     -0.00200000	      0.21582088	      0.00000000	     -0.63725030	      0.00000000	      0.00000000	      0.00000000	      0.00000000	      0.00000000	      0.00000000	      0.00000000	      0.00000000	      0.00000000	      0.00000000
      1.08000000	    -18.21258664	    656.23424947	     18.58163644	      0.33389573	     -0.00200000	      0.21595567	      0.00000000	     -0.64355127	      0.00000000	      0.00000000	      0.00000000	      0.00000000	      0.00000000	      0.00000000	      0.00000000	      0.00000000	      0.00000000	      0.00000000
      1.08100000	    -18.22253242	    656.16558865	     18.61514803	      0.33388468	     -0.00200000	      0.21608991	      0.00000000	     -0.64988717	      0.00000000	      0.00000000	      0.00000000	      0.00000000	      0.00000000	      0.00000000	      0.00000000	      0.00000000	      0.00000000	      0.00000000
      1.08200000	    -18.23150814	    656.09734505	     18.64888128	      0.33387317	     -0.00200000	      0.21622371	     -0.00000000	     -0.65625359	      0.00000000	      0.00000000	      0.00000000	      0.00000000	      0.00000000	      0.00000000	      0.00000000	      0.00000000	      0.00000000	      0.00000000
      1.08300000	    -18.23929474	    656.02949262	     18.68288051	      0.33386110	     -0.00200000	      0.21635696	      0.00000000	     -0.66266034	      0.00000000	      0.00000000	      0.00000000	      0.00000000	      0.00000000	      0.00000000	      0.00000000	      0.00000000	      0.00000000	      0.00000000
      1.08400000	    -18.24615449	    655.96190095	     18.71708836	      0.33384857	     -0.00200000	      0.21648979	      0.00000000	     -0.66910006	      0.00000000	      0.00000000	      0.00000000	      0.00000000	      0.00000000	      0.00000000	      0.00000000	      0.00000000	      0.00000000	      0.00000000
      1.08500000	    -18.25188398	    655.89446574	     18.75154590	      0.33383551	     -0.00200000	      0.21662208	      0.00000000	     -0.67558029	      0.00000000	      0.00000000	      0.00000000	      0.00000000	      0.00000000	      0.00000000	      0.00000000	      0.00000000	      0.00000000	      0.00000000
      1.08600000	    -18.25674027	    655.82703054	     18.78619902	      0.33382202	     -0.00200000	      0.21675394	      0.00000000	     -0.68209141	      0.00000000	      0.00000000	      0.00000000	      0.00000000	      0.00000000	      0.00000000	      0.00000000	      0.00000000	      0.00000000	      0.00000000
      1.08700000	    -18.26054081	    655.75938672	     18.82110117	      0.33380806	     -0.00200000	      0.21688525	     -0.00000000	     -0.68863640	      0.00000000	      0.00000000	      0.00000000	      0.00000000	      0.00000000	      0.00000000	      0.00000000	      0.00000000	      0.00000000	      0.00000000
      1.08800000	    -18.26353073	    655.69153428	     18.85621715	      0.33379370	     -0.00200000	      0.21701612	      0.00000000	     -0.69520376	      0.00000000	      0.00000000	      0.00000000	      0.00000000	      0.00000000	      0.00000000	      0.00000000	      0.00000000	      0.00000000	      0.00000000
      1.08900000	    -18.26555207	    655.62321246	     18.89162324	      0.33377888	     -0.00200000	      0.21714644	      0.00000000	     -0.70179154	      0.00000000	      0.00000000	      0.00000000	      0.00000000	      0.00000000	      0.00000000	      0.00000000	      0.00000000	      0.00000000	      0.00000000
      1.09000000	    -18.26682985	    655.55436909	     18.92727837	      0.33376370	     -0.00200000	      0.21727631	      0.00000000	     -0.70838835	      0.00000000	      0.00000000	      0.00000000	      0.00000000	      0.00000000	      0.00000000	      0.00000000	      0.00000000	      0.00000000	      0.00000000
      1.09100000	    -18.26721579	    655.48479557	     18.96326272	      0.33374809	     -0.00200000	      0.21740562	      0.00000000	     -0.71498799	      0.00000000	      0.00000000	      0.00000000	      0.00000000	      0.00000000	      0.00000000	      0.00000000	      0.00000000	      0.00000000	      0.00000000
      1.09200000	    -18.26691926	    655.41449189	     18.99952739	      0.33373216	     -0.00200000	      0.21753448	      0.00000000	     -0.72158102	      0.00000000	      0.00000000	      0.00000000	      0.00000000	      0.00000000	      0.00000000	      0.00000000	      0.00000000	      0.00000000	      0.00000000
      1.09300000	    -18.26581433	    655.34317121	     19.03617149	      0.33371585	     -0.00200000	      0.21766279	      0.00000000	     -0.72815402	      0.00000000	      0.00000000	      0.00000000	      0.00000000	      0.00000000	      0.00000000	      0.00000000	      0.00000000	      0.00000000	      0.00000000
      1.09400000	    -18.26410294	    655.27096391	     19.07314677	      0.33369923	     -0.00200000	      0.21779066	      0.00000000	     -0.73470138	      0.00000000	      0.00000000	      0.00000000	      0.00000000	      0.00000000	      0.00000000	      0.00000000	      0.00000000	      0.00000000	      0.00000000
      1.09500000	    -18.26168373	    655.19766137	     19.11056601	      0.33368226	     -0.00200000	      0.21791799	      0.00000000	     -0.74120548	      0.00000000	      0.00000000	      0.00000000	      0.00000000	      0.00000000	      0.00000000	      0.00000000	      0.00000000	      0.00000000	      0.00000000
      1.09600000	    -18.25873703	    655.12336791	     19.14836727	      0.33366502	     -0.00200000	      0.21804488	      0.00000000	     -0.74766645	      0.00000000	      0.00000000	      0.00000000	      0.00000000	      0.00000000	      0.00000000	      0.00000000	      0.00000000	      0.00000000	      0.00000000
      1.09700000	    -18.25517341	    655.04797921	     19.18668421	      0.33364745	     -0.00200000	      0.21817124	      0.00000000	     -0.75406317	      0.00000000	      0.00000000	      0.00000000	      0.00000000	      0.00000000	      0.00000000	      0.00000000	      0.00000000	      0.00000000	      0.00000000
      1.09800000	    -18.25114936	    654.97175604	     19.22544837	      0.33362965	     -0.00200000	      0.21829719	      0.00000000	     -0.76039909	      0.00000000	      0.00000000	      0.00000000	      0.00000000	      0.00000000	      0.00000000	      0.00000000	      0.00000000	      0.00000000	      0.00000000
      1.09900000	    -18.24658588	    654.89456803	     19.26481556	      0.33361155	     -0.00200000	      0.21842262	      0.00000000	     -0.76664922	      0.00000000	      0.00000000	      0.00000000	      0.00000000	      0.00000000	      0.00000000	      0.00000000	      0.00000000	      0.00000000	      0.00000000
      1.10000000	    -18.24161857	    654.81680632	     19.30470038	      0.33359321	     -0.00200000	      0.21854765	     -0.00000000	     -0.77282437	      0.00000000	      0.00000000	      0.00000000	      0.00000000	      0.00000000	      0.00000000	      0.00000000	      0.00000000	      0.00000000	      0.00000000
      1.10100000	    -18.23617816	    654.73849699	     19.34526907	      0.33357455	     -0.00200000	      0.21867218	      0.00000000	     -0.77890129	      0.00000000	      0.00000000	      0.00000000	      0.00000000	      0.00000000	      0.00000000	      0.00000000	      0.00000000	      0.00000000	      0.00000000
